Coordinates
version=1
nRows=38
nColumns=12
inDegrees=yes

Units are S.I. units (second, meters, Newtons, ...)
Angles are in degrees

endheader
time	SC_y	SC_z	SC_x	AC_y	AC_z	AC_x	GH_y	GH_z	GH_yy	EL_x	PS_y
       0.0              -21.25          39.29          65.84          69.34         -14.24          -11.9          146.9          73.38          99.11          79.61          156.6
   0.03577              -21.25          39.29          65.84          69.34         -14.24          -11.9          146.9          73.38          99.09          79.61          156.6
   0.07154              -21.26          39.28          65.84          69.34         -14.24          -11.9          146.9          73.38          99.06          79.61          156.6
    0.1073              -21.26          39.27          65.84          69.33         -14.24          -11.9          146.9          73.38          99.03          79.61          156.6
    0.1431              -21.27          39.27          65.84          69.33         -14.24          -11.9          146.9          73.38           99.0          79.61          156.5
    0.1789              -21.28          39.26          65.84          69.33         -14.24          -11.9          146.8          73.38          98.97          79.61          156.5
    0.2146              -21.28          39.25          65.85          69.32         -14.24          -11.9          146.8          73.38          98.94          79.61          156.5
    0.2504              -21.29          39.24          65.85          69.32         -14.24          -11.9          146.8          73.38           98.9          79.61          156.5
    0.2862               -21.3          39.23          65.85          69.31         -14.24          -11.9          146.8          73.38          98.86          79.61          156.4
    0.3219              -21.31          39.22          65.85          69.31         -14.24          -11.9          146.8          73.38          98.82          79.61          156.4
    0.3577              -21.31          39.21          65.85           69.3         -14.24          -11.9          146.7          73.38          98.77          79.61          156.4
    0.3935              -21.32          39.19          65.85          69.29         -14.24         -11.89          146.7          73.38          98.72           79.6          156.3
    0.4293              -21.33          39.18          65.85          69.29         -14.24         -11.89          146.7          73.38          98.67           79.6          156.3
     0.465              -21.35          39.17          65.85          69.28         -14.24         -11.89          146.7          73.37          98.61           79.6          156.3
    0.5008              -21.36          39.15          65.86          69.27         -14.24         -11.89          146.6          73.37          98.55           79.6          156.2
    0.5366              -21.37          39.13          65.86          69.26         -14.24         -11.89          146.6          73.37          98.49           79.6          156.2
    0.5723              -21.38          39.11          65.86          69.25         -14.24         -11.89          146.6          73.37          98.42           79.6          156.1
    0.6081               -21.4          39.09          65.86          69.24         -14.24         -11.89          146.5          73.37          98.34          79.59          156.1
    0.6439              -21.42          39.07          65.86          69.23         -14.25         -11.89          146.5          73.37          98.25          79.59          156.0
    0.6796              -21.44          39.05          65.87          69.22         -14.25         -11.89          146.5          73.37          98.16          79.59          155.9
    0.7154              -21.46          39.02          65.87          69.21         -14.25         -11.88          146.4          73.36          98.05          79.59          155.8
    0.7512              -21.48          38.99          65.87          69.19         -14.25         -11.88          146.4          73.36          97.94          79.58          155.8
     0.787               -21.5          38.96          65.88          69.18         -14.25         -11.88          146.3          73.36          97.81          79.58          155.7
    0.8227              -21.53          38.92          65.88          69.16         -14.25         -11.88          146.2          73.36          97.68          79.58          155.6
    0.8585              -21.56          38.88          65.89          69.14         -14.25         -11.88          146.2          73.35          97.52          79.57          155.5
    0.8943              -21.59          38.84          65.89          69.12         -14.26         -11.87          146.1          73.35          97.35          79.57          155.3
      0.93              -21.63          38.79           65.9          69.09         -14.26         -11.87          146.0          73.35          97.16          79.56          155.2
    0.9658              -21.67          38.73           65.9          69.06         -14.26         -11.87          145.9          73.34          96.94          79.56          155.0
     1.002              -21.72          38.67          65.91          69.03         -14.26         -11.86          145.8          73.34          96.69          79.55          154.9
     1.037              -21.78           38.6          65.92           69.0         -14.27         -11.86          145.6          73.33          96.41          79.55          154.7
     1.073              -21.84          38.52          65.93          68.96         -14.27         -11.85          145.5          73.32           96.1          79.54          154.4
     1.109              -21.91          38.42          65.94          68.91         -14.27         -11.85          145.3          73.32          95.73          79.53          154.2
     1.145              -21.99          38.31          65.95          68.86         -14.28         -11.84          145.1          73.31          95.31          79.52          153.9
      1.18              -22.09          38.19          65.96          68.79         -14.29         -11.83          144.9           73.3          94.82           79.5          153.5
     1.216               -22.2          38.04          65.98          68.72         -14.29         -11.82          144.6          73.29          94.25          79.49          153.1
     1.252              -22.33          37.86           66.0          68.63          -14.3         -11.81          144.3          73.28          93.57          79.47          152.6
     1.288              -22.49          37.66          66.02          68.53         -14.31          -11.8          143.9          73.26          92.77          79.45          152.0
     1.324              -22.68          37.41          66.05          68.41         -14.32         -11.79          143.5          73.24          91.81          79.43          151.4
